<svg xmlns="http://www.w3.org/2000/svg" viewBox="0 0 176.6 25.2"><path d="M176.6 12v-.6c0-5.2-2.2-7.3-8.3-7.3h-18.8v21h6.6V9.3h10.8c2.2 0 3.2.7 3.5 2.7h6.2zm-130 .6c1.4-3.4 3.5-8.4 3.5-8.4h-6.6s-2 5.3-2.4 6.3c-.3.7-.7 1.6-1.4 2h-4.9V10c-.1-3.4-.9-5.7-7.5-5.7H7.8C.4 4.2 0 7 0 10.7c0 5 1 6.2 9.9 6.2 7.6 0 8.3.1 8.3 1.9 0 1.6-1.3 1.7-2.5 1.7H0c.3 3.8 2.5 4.6 7.6 4.6h7.2c7.9 0 9.6-.9 9.6-6.4 0-6-2.1-6.6-11.3-6.5-6.4 0-7.1 0-7.1-1.8 0-1.1.9-1.6 2.2-1.6h17.6c2.3 0 2.8.5 2.9 1.5v14.8h5.9v-8h8.6c2.3.1 2.7.5 2.7 1.8V25h5.9s.1-2.9.1-6.6c-.1-3.8-.7-5.3-5.3-5.8zm92.9-3.3v10.4h-10.8c-2.6 0-3.6-.8-3.6-3.8v-2.8c0-3 1-3.8 3.6-3.8h10.8zm-20.4 2.1v6.4c0 5.2 2.1 7.3 8.2 7.3h18.4v-21h-18.4c-6.1 0-8.2 2.1-8.2 7.3zM97.4 0v4.2H73.6c-7.5 0-7.8 2.5-7.8 6.3 0 5 1 6.2 9.9 6.2 7.6 0 8.3.1 8.3 1.9 0 1.6-1.3 1.7-2.5 1.7H63.7c-1.7 0-2.5-.2-2.6-2.4V4.2h-5.9v16.2-.2c.3 3.8 2.5 5 7.5 5h17.7c7.9 0 9.6-1.2 9.6-6.7 0-6-2.1-6.6-11.3-6.5-6.4 0-7.1 0-7.1-1.8 0-1.1.9-1.6 2.2-1.6h23.5v9.2c0 5.8 3.9 7.5 8.4 7.5h9.9v-5.5s-7.3.1-8.3.1c-1.8 0-3.9-.8-3.9-2.4V8.4H116V4.2h-12.6V0h-6z" fill-rule="evenodd" clip-rule="evenodd" fill="#ba0c2f"/></svg>